<?xml version="1.0" encoding="utf-8"?>
<!-- Generator: Adobe Illustrator 16.0.4, SVG Export Plug-In . SVG Version: 6.00 Build 0)  -->
<!DOCTYPE svg PUBLIC "-//W3C//DTD SVG 1.1//EN" "http://www.w3.org/Graphics/SVG/1.1/DTD/svg11.dtd">
<svg version="1.1" id="图层_1" xmlns="http://www.w3.org/2000/svg" xmlns:xlink="http://www.w3.org/1999/xlink" x="0px" y="0px"
	 width="96px" height="96px" viewBox="0 0 96 96" enable-background="new 0 0 96 96" xml:space="preserve">
<path d="M6.5,92h-4V21h4V92z M27.76,47.645L7.294,25.521l19.03-21.206l0.436-0.173c1.562-0.624,23.097,1.688,63.991,6.875
	l0.74,0.094l0.498,0.556c4.283,4.786,4.935,20.445-0.106,25.278l-0.45,0.431L27.76,47.645z M30.846,8.137
	c-3.379,17.036-3.213,20.926,1.066,34.787l16.338-2.635V9.892C38.738,8.823,33.605,8.346,30.846,8.137z M12.706,25.479
	l14.497,15.672c-3.35-11.472-3.501-16.786-0.841-30.888L12.706,25.479z M52.25,10.346v29.297l15.286-2.465v-25.02
	C61.603,11.438,56.553,10.841,52.25,10.346z M71.536,12.647v23.886l17.95-2.895c2.663-3.499,2.617-14.725-0.059-18.757
	C82.772,14.037,76.837,13.297,71.536,12.647z"/>
</svg>
