<?xml version="1.0" encoding="utf-8"?>
<!-- Generator: Adobe Illustrator 16.0.4, SVG Export Plug-In . SVG Version: 6.00 Build 0)  -->
<!DOCTYPE svg PUBLIC "-//W3C//DTD SVG 1.1//EN" "http://www.w3.org/Graphics/SVG/1.1/DTD/svg11.dtd">
<svg version="1.1" id="图层_1" xmlns="http://www.w3.org/2000/svg" xmlns:xlink="http://www.w3.org/1999/xlink" x="0px" y="0px"
	 width="96px" height="96px" viewBox="0 0 96 96" enable-background="new 0 0 96 96" xml:space="preserve">
<path d="M34.602,60.422c-0.397-0.383-1.029-0.375-1.414,0.023L18.246,75.896c-0.223-0.057-0.452-0.097-0.691-0.097H14.63
	c-1.544,0-2.8,1.256-2.8,2.8v2.924c0,1.544,1.256,2.8,2.8,2.8h2.924c1.544,0,2.8-1.256,2.8-2.8V78.6c0-0.565-0.171-1.09-0.46-1.53
	l14.731-15.233C35.009,61.438,34.999,60.806,34.602,60.422z M17.354,81.323h-2.523V78.8h2.523V81.323z M48,57.52
	c-7.665,0-14.914-3.085-20.262-8.545c-2.62,1.39-5.572,2.115-8.673,2.115C8.553,51.09,0,42.536,0,32.024S8.553,12.96,19.065,12.96
	c1.577,0,3.156,0.199,4.719,0.592C29.07,5.194,38.136,0.1,48,0.1s18.932,5.095,24.216,13.452c1.562-0.394,3.143-0.592,4.72-0.592
	C87.447,12.96,96,21.513,96,32.024S87.447,51.09,76.936,51.09c-3.102,0-6.055-0.726-8.674-2.115
	C62.914,54.435,55.665,57.52,48,57.52z M28.785,40.984l1.814,2.227C34.912,48.504,41.254,51.54,48,51.54
	c6.745,0,13.088-3.035,17.4-8.329l1.814-2.226l2.297,1.722c2.097,1.572,4.664,2.403,7.424,2.403c7.215,0,13.085-5.87,13.085-13.086
	c0-7.215-5.87-13.085-13.085-13.085c-1.671,0-3.361,0.328-5.026,0.975l-2.5,0.973l-1.236-2.381C64.191,10.841,56.462,6.079,48,6.079
	c-8.461,0-16.191,4.762-20.173,12.427l-1.236,2.381l-2.5-0.973c-1.665-0.646-3.355-0.975-5.025-0.975
	c-7.215,0-13.086,5.87-13.086,13.085c0,7.216,5.871,13.086,13.086,13.086c2.76,0,5.326-0.831,7.422-2.403L28.785,40.984z
	 M58.953,68.401c-0.397-0.385-1.03-0.374-1.414,0.023L42.597,83.876c-0.222-0.057-0.451-0.097-0.691-0.097h-2.924
	c-1.545,0-2.801,1.256-2.801,2.8v2.924c0,1.544,1.256,2.8,2.801,2.8h2.924c1.543,0,2.799-1.256,2.799-2.8v-2.924
	c0-0.565-0.171-1.09-0.46-1.53l14.731-15.233C59.361,69.419,59.35,68.785,58.953,68.401z M41.705,89.303h-2.523v-2.523h2.523V89.303
	z M89.146,58.64c-0.397-0.385-1.03-0.374-1.414,0.023L72.791,74.114c-0.223-0.057-0.451-0.097-0.691-0.097h-2.924
	c-1.545,0-2.801,1.256-2.801,2.8v2.924c0,1.544,1.256,2.8,2.801,2.8H72.1c1.543,0,2.799-1.256,2.799-2.8v-2.924
	c0-0.565-0.171-1.09-0.46-1.53L89.17,60.054C89.555,59.657,89.543,59.023,89.146,58.64z M71.898,79.541h-2.523v-2.523h2.523V79.541z
	"/>
</svg>
