<?xml version="1.0" encoding="utf-8"?>
<!-- Generator: Adobe Illustrator 16.0.4, SVG Export Plug-In . SVG Version: 6.00 Build 0)  -->
<!DOCTYPE svg PUBLIC "-//W3C//DTD SVG 1.1//EN" "http://www.w3.org/Graphics/SVG/1.1/DTD/svg11.dtd">
<svg version="1.1" id="图层_1" xmlns="http://www.w3.org/2000/svg" xmlns:xlink="http://www.w3.org/1999/xlink" x="0px" y="0px"
	 width="96px" height="96px" viewBox="0 0 96 96" enable-background="new 0 0 96 96" xml:space="preserve">
<path d="M39.627,73.291c0,5.063-4.104,9.167-9.166,9.167s-9.167-4.104-9.167-9.167c0-4.268,2.921-7.843,6.869-8.864V20.473h4.594
	v43.954C36.707,65.447,39.627,69.023,39.627,73.291z M49.044,73.268c0,10.248-8.336,18.584-18.583,18.584
	s-18.583-8.336-18.583-18.584c0-5.963,2.81-11.457,7.583-14.959V14.648c0-0.155,0.014-0.306,0.041-0.453
	c0.484-5.621,5.214-10.047,10.959-10.047S40.936,8.574,41.42,14.195c0.027,0.147,0.041,0.298,0.041,0.453v43.661
	C46.234,61.811,49.044,67.305,49.044,73.268z M44.044,73.268c0-4.703-2.396-9.008-6.408-11.516l-1.175-0.734V32.501v-6.185v-5
	v-1.732v-4.436c0-3.309-2.691-6-6-6s-6,2.691-6,6v4.436v1.732v5v6.185v28.517l-1.175,0.734c-4.013,2.508-6.408,6.812-6.408,11.516
	c0,7.49,6.093,13.584,13.583,13.584C37.951,86.852,44.044,80.758,44.044,73.268z M55.164,15.648c1.381,0,2.5-1.119,2.5-2.5V6.763
	c0-1.381-1.119-2.5-2.5-2.5s-2.5,1.119-2.5,2.5v6.385C52.664,14.529,53.783,15.648,55.164,15.648z M69.906,20.664
	c0.64,0,1.279-0.244,1.767-0.732l4.517-4.516c0.977-0.976,0.977-2.559,0-3.536c-0.977-0.976-2.559-0.977-3.535,0l-4.516,4.516
	c-0.978,0.976-0.978,2.559,0,3.536C68.627,20.42,69.266,20.664,69.906,20.664z M54.948,20.473c-2.919,0-5.71,0.927-8.063,2.681
	c-1.108,0.825-1.337,2.391-0.512,3.498c0.825,1.108,2.393,1.336,3.498,0.512c1.484-1.106,3.24-1.691,5.077-1.691
	c4.702,0,8.526,3.824,8.526,8.525s-3.824,8.525-8.526,8.525c-1.837,0-3.593-0.584-5.076-1.69c-1.106-0.827-2.674-0.597-3.499,0.51
	c-0.825,1.107-0.597,2.674,0.51,3.499c2.354,1.755,5.143,2.682,8.064,2.682c7.459,0,13.527-6.068,13.527-13.526
	S62.407,20.473,54.948,20.473z M82.55,31.499h-6.386c-1.381,0-2.5,1.119-2.5,2.5s1.119,2.5,2.5,2.5h6.386c1.382,0,2.5-1.119,2.5-2.5
	S83.932,31.499,82.55,31.499z M55.164,52.281c-1.381,0-2.5,1.119-2.5,2.5v6.386c0,1.381,1.119,2.5,2.5,2.5s2.5-1.119,2.5-2.5v-6.386
	C57.664,53.4,56.545,52.281,55.164,52.281z M71.415,46.756c-0.976-0.977-2.558-0.977-3.535,0c-0.978,0.976-0.978,2.559,0,3.535
	l4.517,4.516c0.488,0.488,1.127,0.732,1.768,0.732s1.279-0.244,1.768-0.732c0.977-0.976,0.977-2.558,0-3.535L71.415,46.756z"/>
</svg>
