<?xml version="1.0" encoding="utf-8"?>
<!-- Generator: Adobe Illustrator 16.0.4, SVG Export Plug-In . SVG Version: 6.00 Build 0)  -->
<!DOCTYPE svg PUBLIC "-//W3C//DTD SVG 1.1//EN" "http://www.w3.org/Graphics/SVG/1.1/DTD/svg11.dtd">
<svg version="1.1" id="图层_1" xmlns="http://www.w3.org/2000/svg" xmlns:xlink="http://www.w3.org/1999/xlink" x="0px" y="0px"
	 width="96px" height="96px" viewBox="0 0 96 96" enable-background="new 0 0 96 96" xml:space="preserve">
<g>
	<g>
		<path fill="#1D1D1B" d="M4.8,13.7h86.4c2.6,0,4.8-3.1,4.8-6.9C96,3.1,93.8,0,91.2,0H4.8C2.1,0,0,3.1,0,6.9
			C0,10.6,2.1,13.7,4.8,13.7z M91.2,27.4H4.8c-2.6,0-4.8,3.1-4.8,6.9s2.1,6.9,4.8,6.9h86.4c2.6,0,4.8-3.1,4.8-6.9
			S93.8,27.4,91.2,27.4z M91.2,54.9H4.8c-2.6,0-4.8,3.1-4.8,6.9c0,3.8,2.1,6.9,4.8,6.9h86.4c2.6,0,4.8-3.1,4.8-6.9
			C96,57.9,93.8,54.9,91.2,54.9z M91.2,82.3H4.8c-2.6,0-4.8,3.1-4.8,6.9C0,92.9,2.1,96,4.8,96h86.4c2.6,0,4.8-3.1,4.8-6.9
			C96,85.4,93.8,82.3,91.2,82.3z"/>
	</g>
</g>
</svg>
