<?xml version="1.0" encoding="utf-8"?>
<!-- Generator: Adobe Illustrator 16.0.4, SVG Export Plug-In . SVG Version: 6.00 Build 0)  -->
<!DOCTYPE svg PUBLIC "-//W3C//DTD SVG 1.1//EN" "http://www.w3.org/Graphics/SVG/1.1/DTD/svg11.dtd">
<svg version="1.1" id="图层_1" xmlns="http://www.w3.org/2000/svg" xmlns:xlink="http://www.w3.org/1999/xlink" x="0px" y="0px"
	 width="96px" height="96px" viewBox="0 0 96 96" enable-background="new 0 0 96 96" xml:space="preserve">
<g>
	<g>
		<path fill="#1D1D1B" d="M75,15c-1,0-2,0.1-3,0.2C66.4,7.6,57.6,3,48,3S29.6,7.6,24,15.2c-1-0.1-2-0.2-3-0.2C9.4,15,0,24.4,0,36
			s9.4,21,21,21c2.6,0,5.1-0.5,7.4-1.4c2.3,2,4.9,3.6,7.7,4.8l4.7-4.7c-4.4-1.4-8.3-4-11.2-7.5C27.2,50,24.2,51,21,51
			c-8.3,0-15-6.7-15-15s6.7-15,15-15c2,0,3.9,0.4,5.7,1.1C30.7,14.4,38.7,9,48,9s17.3,5.4,21.3,13.1C71.1,21.4,73,21,75,21
			c8.3,0,15,6.7,15,15s-6.7,15-15,15c-3.2,0-6.2-1-8.6-2.8c-1.9,2.3-4.4,4.2-7.1,5.7l-2.5,7.6c3.9-1.2,7.6-3.2,10.7-5.9
			c2.4,0.9,4.9,1.4,7.4,1.4c11.6,0,21-9.4,21-21S86.6,15,75,15z M36,69l6,6l-6,18l18-18l-6-6l6-18L36,69z"/>
	</g>
</g>
</svg>
