<?xml version="1.0" encoding="utf-8"?>
<!-- Generator: Adobe Illustrator 16.0.4, SVG Export Plug-In . SVG Version: 6.00 Build 0)  -->
<!DOCTYPE svg PUBLIC "-//W3C//DTD SVG 1.1//EN" "http://www.w3.org/Graphics/SVG/1.1/DTD/svg11.dtd">
<svg version="1.1" id="图层_1" xmlns="http://www.w3.org/2000/svg" xmlns:xlink="http://www.w3.org/1999/xlink" x="0px" y="0px"
	 width="96px" height="96px" viewBox="0 0 96 96" enable-background="new 0 0 96 96" xml:space="preserve">
<g>
	<g>
		<path fill="#1D1D1B" d="M75,12c-1,0-2,0.1-3,0.2C66.4,4.6,57.6,0,48,0S29.6,4.6,24,12.2c-1-0.1-2-0.2-3-0.2C9.4,12,0,21.4,0,33
			s9.4,21,21,21c2.6,0,5.1-0.5,7.4-1.4C33.9,57.4,40.8,60,48,60c7.2,0,14.1-2.6,19.6-7.4c2.4,0.9,4.9,1.4,7.4,1.4
			c11.6,0,21-9.4,21-21S86.6,12,75,12z M75,48c-3.2,0-6.2-1-8.6-2.8C62,50.6,55.4,54,48,54s-14-3.4-18.4-8.8C27.2,47,24.2,48,21,48
			c-8.3,0-15-6.7-15-15s6.7-15,15-15c2,0,3.9,0.4,5.7,1.1C30.7,11.4,38.7,6,48,6s17.3,5.4,21.3,13.1C71.1,18.4,73,18,75,18
			c8.3,0,15,6.7,15,15S83.3,48,75,48z M42.2,90c0,3.3,2.7,6,6,6s6-2.7,6-6s-6-12-6-12S42.2,86.7,42.2,90z M66,84c0,3.3,2.7,6,6,6
			s6-2.7,6-6s-6-12-6-12S66,80.7,66,84z M18,72c0,3.3,2.7,6,6,6s6-2.7,6-6s-6-12-6-12S18,68.7,18,72z"/>
	</g>
</g>
</svg>
