<?xml version="1.0" encoding="utf-8"?>
<!-- Generator: Adobe Illustrator 16.0.4, SVG Export Plug-In . SVG Version: 6.00 Build 0)  -->
<!DOCTYPE svg PUBLIC "-//W3C//DTD SVG 1.1//EN" "http://www.w3.org/Graphics/SVG/1.1/DTD/svg11.dtd">
<svg version="1.1" id="图层_1" xmlns="http://www.w3.org/2000/svg" xmlns:xlink="http://www.w3.org/1999/xlink" x="0px" y="0px"
	 width="96px" height="96px" viewBox="0 0 96 96" enable-background="new 0 0 96 96" xml:space="preserve">
<path d="M81.685,30.288l0.048-11.54L33.463,9.486L29.3,20.065c-1.903,0.389-3.361,1.614-3.689,3.325l-1.236,6.445
	c-0.473,2.461,1.593,4.856,4.702,5.453l1.167,0.224l-0.801,4.175c-0.26,1.356,0.628,2.666,1.984,2.926
	c1.356,0.26,2.666-0.628,2.926-1.984l0.801-4.175l34.356,6.593l-0.801,4.175c-0.261,1.355,0.628,2.666,1.983,2.926
	c1.356,0.261,2.666-0.628,2.927-1.984l0.801-4.175l1.509,0.29c3.109,0.597,5.915-0.864,6.388-3.325l1.236-6.445
	C83.859,32.917,83.098,31.356,81.685,30.288z M36.596,15.178l40.119,7.699l-0.024,5.765l-42.206-8.099L36.596,15.178z
	 M77.523,39.402c-0.161,0.018-0.382,0.018-0.651-0.034l-46.854-8.991c-0.269-0.051-0.474-0.133-0.617-0.209l1.002-5.226
	c0.161-0.018,0.382-0.018,0.651,0.034l46.854,8.991c0.27,0.052,0.475,0.134,0.618,0.21L77.523,39.402z M25.959,78.561
	c-0.458-0.139-11.238-3.475-13.754-11.052c-1.952-5.88,3.192-9.66,7.326-12.697c5.681-4.173,7.742-6.274,5.202-10.314l4.233-2.661
	c5.266,8.379-1.8,13.57-6.475,17.005c-4.315,3.17-6.268,4.902-5.542,7.091c1.417,4.27,8.027,7.107,10.455,7.841L25.959,78.561z
	 M65.125,86.917c-0.458-0.139-11.238-3.475-13.754-11.053c-1.952-5.879,3.192-9.659,7.326-12.696
	c5.681-4.173,7.741-6.274,5.202-10.314l4.232-2.66c5.268,8.379-1.799,13.569-6.474,17.005c-4.315,3.17-6.269,4.902-5.541,7.091
	c1.417,4.27,8.026,7.107,10.453,7.841L65.125,86.917z"/>
</svg>
