<?xml version="1.0" encoding="utf-8"?>
<!-- Generator: Adobe Illustrator 16.0.4, SVG Export Plug-In . SVG Version: 6.00 Build 0)  -->
<!DOCTYPE svg PUBLIC "-//W3C//DTD SVG 1.1//EN" "http://www.w3.org/Graphics/SVG/1.1/DTD/svg11.dtd">
<svg version="1.1" id="图层_1" xmlns="http://www.w3.org/2000/svg" xmlns:xlink="http://www.w3.org/1999/xlink" x="0px" y="0px"
	 width="96px" height="96px" viewBox="0 0 96 96" enable-background="new 0 0 96 96" xml:space="preserve">
<path d="M87.236,23.108c-29.326-10.08-50.978,2.017-50.978,2.017l0.007,0.014c-12.525,6.486-17.565,21.846-11.24,34.506
	c2.159,4.323,5.368,7.772,9.16,10.203c-7.023,1.997-15.607,3.465-25.428,3.27c22.964,7.868,41.234,2.172,48.107-0.685
	c0.96-0.345,1.911-0.742,2.847-1.21c12.776-6.383,17.96-21.912,11.579-34.686c-2.229-4.462-5.578-7.995-9.532-10.436
	C68.788,24.257,77.388,22.904,87.236,23.108z M54.418,60.622c-6.921,3.456-15.333,0.649-18.789-6.272
	c-3.457-6.919-0.649-15.333,6.271-18.788c6.92-3.457,15.332-0.65,18.79,6.27C64.145,48.751,61.339,57.164,54.418,60.622z"/>
</svg>
