<?xml version="1.0" encoding="UTF-8" standalone="no"?>
    <svg xmlns:cc="http://creativecommons.org/ns#" xmlns:svg="http://www.w3.org/2000/svg" xmlns="http://www.w3.org/2000/svg" version="1.1" viewBox="0 0 512 512" height="512" width="512">
        <rect y="0" x="0" rx="2" ry="2" height="512" width="512" id="rect-doc" style="fill:#ffc700;fill-opacity:1;stroke:none;stroke-opacity:1" />
        <text id="color0" y="112" x="32" style="font-style:normal;font-variant:normal;font-weight:normal;font-stretch:normal;font-size:96px;font-family:'Source Han Sans CN';text-align:start;letter-spacing:0px;word-spacing:0;writing-mode:lr-tb;text-anchor:left;fill:#ffffff;fill-opacity:1;stroke:none;">寒潮</text>
        <text id="color1" y="228" x="32" style="font-style:normal;font-variant:normal;font-weight:normal;font-stretch:normal;font-size:96px;font-family:'Source Han Sans CN';text-align:start;word-spacing:0;writing-mode:lr-tb;text-anchor:lfet;fill:#ffffff;fill-opacity:1;stroke:none;">黄色预警</text>
        <text id="en" y="464" x="48" font-size='32px'  fill="#ffffff" fill-opacity="1" stroke="none" font-family='Roboto' style="font-style:normal;font-variant:normal;font-weight:normal;font-stretch:normal;text-align:start;word-spacing:0;writing-mode:lr-tb;">COLD WAVE</text>
        <path style="stroke:#000000;stroke-width:1px;stroke-opacity:0.1" d="M0,384 L512,384" />
        <g transform="translate(368,400)">
            <path stroke="#ffffff" fill="#ffffff" d="M39.627,73.291c0,5.063-4.104,9.167-9.166,9.167s-9.167-4.104-9.167-9.167c0-4.268,2.921-7.843,6.869-8.864V54.75h4.594  v9.677C36.707,65.447,39.627,69.023,39.627,73.291z M79.854,52c0,1.381-1.119,2.5-2.5,2.5h-3.833  c-0.178,0.563-0.415,1.101-0.699,1.607l2.735,2.734c0.977,0.977,0.977,2.559,0,3.535c-0.978,0.977-2.56,0.977-3.535,0l-2.811-2.809  c-0.486,0.247-0.999,0.449-1.533,0.601v4.008c0,1.382-1.119,2.5-2.5,2.5s-2.5-1.118-2.5-2.5v-4.1  c-0.498-0.162-0.979-0.364-1.433-0.61l-2.911,2.91c-0.977,0.977-2.559,0.977-3.535,0c-0.976-0.977-0.977-2.561,0-3.535l2.938-2.937  c-0.235-0.447-0.436-0.916-0.59-1.406H53c-1.381,0-2.5-1.119-2.5-2.5s1.119-2.5,2.5-2.5h4.102c0.148-0.508,0.346-0.995,0.581-1.459  l-2.884-2.883c-0.977-0.977-0.977-2.56,0-3.536c0.977-0.977,2.559-0.976,3.535,0l2.81,2.809c0.484-0.271,0.997-0.498,1.534-0.672  v-3.937c0-1.381,1.119-2.5,2.5-2.5s2.5,1.119,2.5,2.5v3.845c0.574,0.163,1.125,0.381,1.645,0.654l2.699-2.699  c0.978-0.976,2.56-0.976,3.535,0c0.978,0.976,0.978,2.559,0,3.536l-2.674,2.673c0.285,0.525,0.512,1.085,0.683,1.669h3.788  C78.734,49.5,79.854,50.619,79.854,52z M68.458,52.104c0-1.769-1.435-3.202-3.202-3.202c-1.771,0-3.203,1.434-3.203,3.202  s1.433,3.202,3.203,3.202C67.023,55.307,68.458,53.873,68.458,52.104z M49.044,73.268c0,10.248-8.336,18.584-18.583,18.584  s-18.583-8.336-18.583-18.584c0-5.963,2.81-11.457,7.583-14.959V14.648c0-0.155,0.014-0.306,0.041-0.453  c0.484-5.621,5.214-10.047,10.959-10.047S40.936,8.574,41.42,14.195c0.027,0.147,0.041,0.298,0.041,0.453v43.661  C46.234,61.811,49.044,67.305,49.044,73.268z M44.044,73.268c0-4.703-2.396-9.009-6.408-11.517l-1.175-0.733v-3.934v-1.768v-5V45.5  V15.148c0-3.309-2.691-6-6-6s-6,2.691-6,6V45.5v4.816v5v1.768v3.934l-1.175,0.733c-4.013,2.508-6.408,6.812-6.408,11.517  c0,7.489,6.093,13.584,13.583,13.584C37.951,86.852,44.044,80.757,44.044,73.268z" />
        </g>
    </svg>
