<?xml version="1.0" encoding="UTF-8" standalone="no"?>
    <svg xmlns:cc="http://creativecommons.org/ns#" xmlns:svg="http://www.w3.org/2000/svg" xmlns="http://www.w3.org/2000/svg" version="1.1" viewBox="0 0 512 512" height="512" width="512">
        <rect y="0" x="0" rx="2" ry="2" height="512" width="512" id="rect-doc" style="fill:#ffc700;fill-opacity:1;stroke:none;stroke-opacity:1" />
        <text id="color0" y="112" x="32" style="font-style:normal;font-variant:normal;font-weight:normal;font-stretch:normal;font-size:96px;font-family:STHeiti;text-align:start;letter-spacing:8px;word-spacing:0;writing-mode:lr-tb;text-anchor:left;fill:#ffffff;fill-opacity:1;stroke:none;">寒潮</text>
        <text id="color1" y="228" x="32" style="font-style:normal;font-variant:normal;font-weight:normal;font-stretch:normal;font-size:96px;font-family:STHeiti;text-align:start;word-spacing:0;writing-mode:lr-tb;text-anchor:lfet;fill:#ffffff;fill-opacity:1;stroke:none;">黄色预警</text>
        <text id="en" y="464" x="48" font-size='32px'  fill="#ffffff" fill-opacity="1" stroke="none" font-family='Helvetica Neue' style="font-style:normal;font-variant:normal;font-weight:normal;font-stretch:normal;text-align:start;word-spacing:0;writing-mode:lr-tb;text-anchor:left;">COLD WAVE</text>
        <path style="stroke:#000000;stroke-width:1px;stroke-opacity:0.1" d="M0,384 L512,384" />
        <g transform="translate(368,400)">
            <path stroke="#ffffff" fill="#ffffff" d="M30.461,91.852c-10.247,0-18.583-8.337-18.583-18.584c0-5.964,2.81-11.458,7.583-14.959V14.648  c0-0.155,0.014-0.306,0.041-0.453c0.484-5.621,5.214-10.047,10.959-10.047S40.936,8.574,41.42,14.195  c0.027,0.147,0.041,0.298,0.041,0.453v43.661c4.773,3.501,7.583,8.995,7.583,14.959C49.044,83.515,40.708,91.852,30.461,91.852z   M24.461,55.316v5.701l-1.175,0.734c-4.013,2.508-6.408,6.812-6.408,11.516c0,7.49,6.093,13.584,13.583,13.584  s13.583-6.094,13.583-13.584c0-4.703-2.396-9.008-6.408-11.516l-1.175-0.734v-5.701H24.461z M24.461,50.316h12V15.148  c0-3.309-2.691-6-6-6s-6,2.691-6,6V50.316z M65.178,66.677c-1.381,0-2.5-1.119-2.5-2.5v-6.143l-4.344,4.343  c-0.977,0.977-2.559,0.977-3.535,0s-0.977-2.56,0-3.535l4.343-4.343H53c-1.381,0-2.5-1.119-2.5-2.5s1.119-2.5,2.5-2.5l0,0h6.142  l-4.343-4.342c-0.977-0.977-0.977-2.56,0-3.536c0.977-0.977,2.559-0.976,3.535,0l4.344,4.343v-6.143c0-1.381,1.119-2.5,2.5-2.5  s2.5,1.119,2.5,2.5v6.143l4.344-4.343c0.977-0.976,2.559-0.976,3.535,0c0.977,0.976,0.977,2.559,0,3.536L71.214,49.5h6.14  c1.381,0,2.5,1.119,2.5,2.5s-1.119,2.5-2.5,2.5l0,0h-6.14l4.342,4.342c0.977,0.976,0.977,2.559,0,3.535s-2.559,0.977-3.535,0  l-4.343-4.342v6.142C67.678,65.558,66.559,66.677,65.178,66.677z" />
        </g>
    </svg>
