<?xml version="1.0" encoding="UTF-8" standalone="no"?>
    <svg xmlns:cc="http://creativecommons.org/ns#" xmlns:svg="http://www.w3.org/2000/svg" xmlns="http://www.w3.org/2000/svg" version="1.1" viewBox="0 0 512 512" height="512" width="512">
        <rect y="0" x="0" rx="2" ry="2" height="512" width="512" id="rect-doc" style="fill:#2196f3;fill-opacity:1;stroke:none;stroke-opacity:1" />
        <text id="color0" y="112" x="32" style="font-style:normal;font-variant:normal;font-weight:normal;font-stretch:normal;font-size:96px;font-family:'Source Han Sans CN';text-align:start;letter-spacing:0px;word-spacing:0;writing-mode:lr-tb;text-anchor:left;fill:#ffffff;fill-opacity:1;stroke:none;">大风</text>
        <text id="color1" y="228" x="32" style="font-style:normal;font-variant:normal;font-weight:normal;font-stretch:normal;font-size:96px;font-family:'Source Han Sans CN';text-align:start;word-spacing:0;writing-mode:lr-tb;text-anchor:lfet;fill:#ffffff;fill-opacity:1;stroke:none;">蓝色预警</text>
        <text id="en" y="464" x="48" font-size='32px'  fill="#ffffff" fill-opacity="1" stroke="none" font-family='Roboto' style="font-style:normal;font-variant:normal;font-weight:normal;font-stretch:normal;text-align:start;word-spacing:0;writing-mode:lr-tb;">GALE</text>
        <path style="stroke:#000000;stroke-width:1px;stroke-opacity:0.1" d="M0,384 L512,384" />
        <g transform="translate(368,400)">
            <path stroke="#ffffff" fill="#ffffff" d="M6.5,92h-4V21h4V92z M27.76,47.645L7.294,25.521l19.03-21.206l0.436-0.173c1.562-0.624,23.097,1.688,63.991,6.875  l0.74,0.094l0.498,0.556c4.283,4.786,4.935,20.445-0.106,25.278l-0.45,0.431L27.76,47.645z M30.846,8.137  c-3.379,17.036-3.213,20.926,1.066,34.787l16.338-2.635V9.892C38.738,8.823,33.605,8.346,30.846,8.137z M12.706,25.479  l14.497,15.672c-3.35-11.472-3.501-16.786-0.841-30.888L12.706,25.479z M52.25,10.346v29.297l15.286-2.465v-25.02  C61.603,11.438,56.553,10.841,52.25,10.346z M71.536,12.647v23.886l17.95-2.895c2.663-3.499,2.617-14.725-0.059-18.757  C82.772,14.037,76.837,13.297,71.536,12.647z" />
        </g>
    </svg>
