<?xml version="1.0" encoding="UTF-8" standalone="no"?>
    <svg xmlns:cc="http://creativecommons.org/ns#" xmlns:svg="http://www.w3.org/2000/svg" xmlns="http://www.w3.org/2000/svg" version="1.1" viewBox="0 0 512 512" height="512" width="512">
        <rect y="0" x="0" rx="2" ry="2" height="512" width="512" id="rect-doc" style="fill:#ff9800;fill-opacity:1;stroke:none;stroke-opacity:1" />
        <text id="color" y="112" x="32" style="font-style:normal;font-variant:normal;font-weight:normal;font-stretch:normal;font-size:96px;font-family:sans-serif;text-align:start;letter-spacing:8px;word-spacing:0;writing-mode:lr-tb;text-anchor:left;fill:#ffffff;fill-opacity:1;stroke:none;">大风</text>
        <text id="color" y="228" x="32" style="font-style:normal;font-variant:normal;font-weight:normal;font-stretch:normal;font-size:96px;font-family:sans-serif;text-align:start;letter-spacing:8px;word-spacing:0;writing-mode:lr-tb;text-anchor:lfet;fill:#ffffff;fill-opacity:1;stroke:none;">橙色预警</text>
        <text id="en" y="464" x="48" style="font-style:normal;font-variant:normal;font-weight:normal;font-stretch:normal;font-size:40px;font-family:'Helvetica Neue';text-align:start;word-spacing:0;writing-mode:lr-tb;text-anchor:left;fill:#ffffff;fill-opacity:1;stroke:none;">GALE</text>
        <path style="stroke:#000000;stroke-width:1px;stroke-opacity:0.1" d="M0,384 L512,384" />
        <g transform="translate(368,400) scale(0.2)">
            <path fill-rule="evenodd" clip-rule="evenodd" fill="#ffffff" d="M431,192c-26.5,0-48,21.5-48,48c0,5.646,1.167,10.958,2.938,16H79c-8.833,0-16,7.167-16,16s7.167,16,16,16    h352c26.5,0,48-21.5,48-48S457.5,192,431,192z M79,224h192c26.5,0,48-21.5,48-48s-21.5-48-48-48s-48,21.5-48,48    c0,5.646,1.167,10.958,2.938,16H79c-8.833,0-16,7.167-16,16S70.167,224,79,224z M335,320c-0.938,0-1.834,0.208-2.791,0.291    c-0.625-0.041-1.146-0.291-1.771-0.291H83.584C72.209,320,63,327.167,63,336s9.209,16,20.584,16h206.354    c-1.771,5.042-2.938,10.376-2.938,16c0,26.5,21.5,48,48,48s48-21.5,48-48S361.5,320,335,320z" />
        </g>
    </svg>