<?xml version="1.0" encoding="UTF-8" standalone="no"?>
    <svg xmlns:cc="http://creativecommons.org/ns#" xmlns:svg="http://www.w3.org/2000/svg" xmlns="http://www.w3.org/2000/svg" version="1.1" viewBox="0 0 512 512" height="512" width="512">
        <rect y="0" x="0" rx="2" ry="2" height="512" width="512" id="rect-doc" style="fill:#f44336;fill-opacity:1;stroke:none;stroke-opacity:1" />
        <text id="color0" y="112" x="32" style="font-style:normal;font-variant:normal;font-weight:normal;font-stretch:normal;font-size:96px;font-family:'Source Han Sans CN';text-align:start;letter-spacing:0px;word-spacing:0;writing-mode:lr-tb;text-anchor:left;fill:#ffffff;fill-opacity:1;stroke:none;">高温</text>
        <text id="color1" y="228" x="32" style="font-style:normal;font-variant:normal;font-weight:normal;font-stretch:normal;font-size:96px;font-family:'Source Han Sans CN';text-align:start;word-spacing:0;writing-mode:lr-tb;text-anchor:lfet;fill:#ffffff;fill-opacity:1;stroke:none;">红色预警</text>
        <text id="en" y="464" x="48" font-size='32px'  fill="#ffffff" fill-opacity="1" stroke="none" font-family='Roboto' style="font-style:normal;font-variant:normal;font-weight:normal;font-stretch:normal;text-align:start;word-spacing:0;writing-mode:lr-tb;">HEAT WAVE</text>
        <path style="stroke:#000000;stroke-width:1px;stroke-opacity:0.1" d="M0,384 L512,384" />
        <g transform="translate(368,400)">
            <path stroke="#ffffff" fill="#ffffff" d="M30.461,91.852c-10.247,0-18.583-8.337-18.583-18.584c0-5.964,2.81-11.458,7.583-14.959V14.648  c0-0.155,0.014-0.306,0.041-0.453c0.484-5.621,5.214-10.047,10.959-10.047S40.936,8.574,41.42,14.195  c0.027,0.147,0.041,0.298,0.041,0.453v43.661c4.773,3.501,7.583,8.995,7.583,14.959C49.044,83.515,40.708,91.852,30.461,91.852z   M24.461,26.316v34.702l-1.175,0.734c-4.013,2.508-6.408,6.812-6.408,11.516c0,7.49,6.093,13.584,13.583,13.584  s13.583-6.094,13.583-13.584c0-4.703-2.396-9.008-6.408-11.516l-1.175-0.734V26.316H24.461z M24.461,21.316h12v-6.168  c0-3.309-2.691-6-6-6s-6,2.691-6,6V21.316z M55.164,63.667c-1.381,0-2.5-1.119-2.5-2.5v-6.386c0-1.381,1.119-2.5,2.5-2.5  s2.5,1.119,2.5,2.5v6.386C57.664,62.548,56.545,63.667,55.164,63.667z M74.164,55.539c-0.64,0-1.279-0.244-1.768-0.732l-4.516-4.516  c-0.977-0.977-0.977-2.559,0-3.535c0.977-0.977,2.559-0.977,3.535,0l4.516,4.516c0.977,0.977,0.977,2.559,0,3.535  C75.443,55.295,74.804,55.539,74.164,55.539z M54.947,47.524c-2.922,0-5.711-0.927-8.064-2.682c-1.107-0.825-1.335-2.392-0.51-3.499  c0.825-1.107,2.392-1.337,3.499-0.51c1.483,1.106,3.239,1.69,5.076,1.69c4.702,0,8.527-3.824,8.527-8.525s-3.825-8.525-8.527-8.525  c-1.836,0-3.592,0.585-5.077,1.691c-1.106,0.824-2.673,0.596-3.498-0.512c-0.825-1.107-0.596-2.673,0.512-3.498  c2.354-1.754,5.144-2.681,8.063-2.681c7.459,0,13.527,6.067,13.527,13.525S62.406,47.524,54.947,47.524z M82.55,36.499h-6.386  c-1.381,0-2.5-1.119-2.5-2.5s1.119-2.5,2.5-2.5h6.386c1.381,0,2.5,1.119,2.5,2.5S83.931,36.499,82.55,36.499z M69.906,20.664  c-0.64,0-1.279-0.244-1.768-0.732c-0.977-0.977-0.977-2.56,0-3.536l4.516-4.516c0.977-0.977,2.559-0.976,3.535,0  c0.977,0.977,0.977,2.56,0,3.536l-4.516,4.516C71.186,20.42,70.546,20.664,69.906,20.664z M55.164,15.648  c-1.381,0-2.5-1.119-2.5-2.5V6.763c0-1.381,1.119-2.5,2.5-2.5s2.5,1.119,2.5,2.5v6.385C57.664,14.529,56.545,15.648,55.164,15.648z" />
        </g>
    </svg>
