<?xml version="1.0" encoding="UTF-8" standalone="no"?>
    <svg xmlns:cc="http://creativecommons.org/ns#" xmlns:svg="http://www.w3.org/2000/svg" xmlns="http://www.w3.org/2000/svg" version="1.1" viewBox="0 0 512 512" height="512" width="512">
        <rect y="0" x="0" rx="2" ry="2" height="512" width="512" id="rect-doc" style="fill:#2196f3;fill-opacity:1;stroke:none;stroke-opacity:1" />
        <text id="color" y="112" x="32" style="font-style:normal;font-variant:normal;font-weight:normal;font-stretch:normal;font-size:96px;font-family:sans-serif;text-align:start;letter-spacing:8px;word-spacing:0;writing-mode:lr-tb;text-anchor:left;fill:#ffffff;fill-opacity:1;stroke:none;">大雾</text>
        <text id="color" y="228" x="32" style="font-style:normal;font-variant:normal;font-weight:normal;font-stretch:normal;font-size:96px;font-family:sans-serif;text-align:start;letter-spacing:8px;word-spacing:0;writing-mode:lr-tb;text-anchor:lfet;fill:#ffffff;fill-opacity:1;stroke:none;">蓝色预警</text>
        <text id="en" y="464" x="48" style="font-style:normal;font-variant:normal;font-weight:normal;font-stretch:normal;font-size:40px;font-family:'Helvetica Neue';text-align:start;word-spacing:0;writing-mode:lr-tb;text-anchor:left;fill:#ffffff;fill-opacity:1;stroke:none;">HEAVY FOG</text>
        <path style="stroke:#000000;stroke-width:1px;stroke-opacity:0.1" d="M0,384 L512,384" />
        <g transform="translate(368,400) scale(0.2)">
            <path fill-rule="evenodd" clip-rule="evenodd" fill="#ffffff" d="M112,160h288c8.833,0,16-7.167,16-16s-7.167-16-16-16H112c-8.833,0-16,7.167-16,16S103.167,160,112,160z     M400,192H112c-8.833,0-16,7.167-16,16s7.167,16,16,16h288c8.833,0,16-7.167,16-16S408.833,192,400,192z M400,256H112    c-8.833,0-16,7.167-16,16s7.167,16,16,16h288c8.833,0,16-7.167,16-16S408.833,256,400,256z M400,320H112c-8.833,0-16,7.167-16,16    s7.167,16,16,16h288c8.833,0,16-7.167,16-16S408.833,320,400,320z" />
        </g>
    </svg>