<?xml version="1.0" encoding="UTF-8" standalone="no"?>
    <svg xmlns:cc="http://creativecommons.org/ns#" xmlns:svg="http://www.w3.org/2000/svg" xmlns="http://www.w3.org/2000/svg" version="1.1" viewBox="0 0 512 512" height="512" width="512">
        <rect y="0" x="0" rx="2" ry="2" height="512" width="512" id="rect-doc" style="fill:#ff9800;fill-opacity:1;stroke:none;stroke-opacity:1" />
        <text id="color0" y="112" x="32" style="font-style:normal;font-variant:normal;font-weight:normal;font-stretch:normal;font-size:96px;font-family:STHeiti;text-align:start;letter-spacing:8px;word-spacing:0;writing-mode:lr-tb;text-anchor:left;fill:#ffffff;fill-opacity:1;stroke:none;">大雾</text>
        <text id="color1" y="228" x="32" style="font-style:normal;font-variant:normal;font-weight:normal;font-stretch:normal;font-size:96px;font-family:STHeiti;text-align:start;word-spacing:0;writing-mode:lr-tb;text-anchor:lfet;fill:#ffffff;fill-opacity:1;stroke:none;">橙色预警</text>
        <text id="en" y="464" x="48" font-size='32px'  fill="#ffffff" fill-opacity="1" stroke="none" font-family='Helvetica Neue' style="font-style:normal;font-variant:normal;font-weight:normal;font-stretch:normal;text-align:start;word-spacing:0;writing-mode:lr-tb;text-anchor:left;">HEAVY FOG</text>
        <path style="stroke:#000000;stroke-width:1px;stroke-opacity:0.1" d="M0,384 L512,384" />
        <g transform="translate(368,400)">
            <path stroke="#ffffff" fill="#ffffff" d="M4.8,13.7h86.4c2.6,0,4.8-3.1,4.8-6.9C96,3.1,93.8,0,91.2,0H4.8C2.1,0,0,3.1,0,6.9    C0,10.6,2.1,13.7,4.8,13.7z M91.2,27.4H4.8c-2.6,0-4.8,3.1-4.8,6.9s2.1,6.9,4.8,6.9h86.4c2.6,0,4.8-3.1,4.8-6.9    S93.8,27.4,91.2,27.4z M91.2,54.9H4.8c-2.6,0-4.8,3.1-4.8,6.9c0,3.8,2.1,6.9,4.8,6.9h86.4c2.6,0,4.8-3.1,4.8-6.9    C96,57.9,93.8,54.9,91.2,54.9z M91.2,82.3H4.8c-2.6,0-4.8,3.1-4.8,6.9C0,92.9,2.1,96,4.8,96h86.4c2.6,0,4.8-3.1,4.8-6.9    C96,85.4,93.8,82.3,91.2,82.3z" />
        </g>
    </svg>
