<?xml version="1.0" encoding="UTF-8" standalone="no"?>
    <svg xmlns:cc="http://creativecommons.org/ns#" xmlns:svg="http://www.w3.org/2000/svg" xmlns="http://www.w3.org/2000/svg" version="1.1" viewBox="0 0 512 512" height="512" width="512">
        <rect y="0" x="0" rx="2" ry="2" height="512" width="512" id="rect-doc" style="fill:#ff9800;fill-opacity:1;stroke:none;stroke-opacity:1" />
        <text id="color0" y="112" x="32" style="font-style:normal;font-variant:normal;font-weight:normal;font-stretch:normal;font-size:96px;font-family:STHeiti;text-align:start;letter-spacing:8px;word-spacing:0;writing-mode:lr-tb;text-anchor:left;fill:#ffffff;fill-opacity:1;stroke:none;">闪电</text>
        <text id="color1" y="228" x="32" style="font-style:normal;font-variant:normal;font-weight:normal;font-stretch:normal;font-size:96px;font-family:STHeiti;text-align:start;word-spacing:0;writing-mode:lr-tb;text-anchor:lfet;fill:#ffffff;fill-opacity:1;stroke:none;">橙色预警</text>
        <text id="en" y="464" x="48" font-size='32px'  fill="#ffffff" fill-opacity="1" stroke="none" font-family='Helvetica Neue' style="font-style:normal;font-variant:normal;font-weight:normal;font-stretch:normal;text-align:start;word-spacing:0;writing-mode:lr-tb;text-anchor:left;">LIGHTNING</text>
        <path style="stroke:#000000;stroke-width:1px;stroke-opacity:0.1" d="M0,384 L512,384" />
        <g transform="translate(368,400)">
            <path stroke="#ffffff" fill="#ffffff" d="M75,15c-1,0-2,0.1-3,0.2C66.4,7.6,57.6,3,48,3S29.6,7.6,24,15.2c-1-0.1-2-0.2-3-0.2C9.4,15,0,24.4,0,36    s9.4,21,21,21c2.6,0,5.1-0.5,7.4-1.4c2.3,2,4.9,3.6,7.7,4.8l4.7-4.7c-4.4-1.4-8.3-4-11.2-7.5C27.2,50,24.2,51,21,51    c-8.3,0-15-6.7-15-15s6.7-15,15-15c2,0,3.9,0.4,5.7,1.1C30.7,14.4,38.7,9,48,9s17.3,5.4,21.3,13.1C71.1,21.4,73,21,75,21    c8.3,0,15,6.7,15,15s-6.7,15-15,15c-3.2,0-6.2-1-8.6-2.8c-1.9,2.3-4.4,4.2-7.1,5.7l-2.5,7.6c3.9-1.2,7.6-3.2,10.7-5.9    c2.4,0.9,4.9,1.4,7.4,1.4c11.6,0,21-9.4,21-21S86.6,15,75,15z M36,69l6,6l-6,18l18-18l-6-6l6-18L36,69z" />
        </g>
    </svg>
