<?xml version="1.0" encoding="UTF-8" standalone="no"?>
    <svg xmlns:cc="http://creativecommons.org/ns#" xmlns:svg="http://www.w3.org/2000/svg" xmlns="http://www.w3.org/2000/svg" version="1.1" viewBox="0 0 512 512" height="512" width="512">
        <rect y="0" x="0" rx="2" ry="2" height="512" width="512" id="rect-doc" style="fill:#ffc700;fill-opacity:1;stroke:none;stroke-opacity:1" />
        <text id="color0" y="112" x="32" style="font-style:normal;font-variant:normal;font-weight:normal;font-stretch:normal;font-size:96px;font-family:STHeiti;text-align:start;letter-spacing:8px;word-spacing:0;writing-mode:lr-tb;text-anchor:left;fill:#ffffff;fill-opacity:1;stroke:none;">暴雨</text>
        <text id="color1" y="228" x="32" style="font-style:normal;font-variant:normal;font-weight:normal;font-stretch:normal;font-size:96px;font-family:STHeiti;text-align:start;word-spacing:0;writing-mode:lr-tb;text-anchor:lfet;fill:#ffffff;fill-opacity:1;stroke:none;">黄色预警</text>
        <text id="en" y="464" x="48" font-size='32px'  fill="#ffffff" fill-opacity="1" stroke="none" font-family='Helvetica Neue' style="font-style:normal;font-variant:normal;font-weight:normal;font-stretch:normal;text-align:start;word-spacing:0;writing-mode:lr-tb;text-anchor:left;">RAIN STORM</text>
        <path style="stroke:#000000;stroke-width:1px;stroke-opacity:0.1" d="M0,384 L512,384" />
        <g transform="translate(368,400)">
            <path stroke="#ffffff" fill="#ffffff" d="M75,12c-1,0-2,0.1-3,0.2C66.4,4.6,57.6,0,48,0S29.6,4.6,24,12.2c-1-0.1-2-0.2-3-0.2C9.4,12,0,21.4,0,33    s9.4,21,21,21c2.6,0,5.1-0.5,7.4-1.4C33.9,57.4,40.8,60,48,60c7.2,0,14.1-2.6,19.6-7.4c2.4,0.9,4.9,1.4,7.4,1.4    c11.6,0,21-9.4,21-21S86.6,12,75,12z M75,48c-3.2,0-6.2-1-8.6-2.8C62,50.6,55.4,54,48,54s-14-3.4-18.4-8.8C27.2,47,24.2,48,21,48    c-8.3,0-15-6.7-15-15s6.7-15,15-15c2,0,3.9,0.4,5.7,1.1C30.7,11.4,38.7,6,48,6s17.3,5.4,21.3,13.1C71.1,18.4,73,18,75,18    c8.3,0,15,6.7,15,15S83.3,48,75,48z M42.2,90c0,3.3,2.7,6,6,6s6-2.7,6-6s-6-12-6-12S42.2,86.7,42.2,90z M66,84c0,3.3,2.7,6,6,6    s6-2.7,6-6s-6-12-6-12S66,80.7,66,84z M18,72c0,3.3,2.7,6,6,6s6-2.7,6-6s-6-12-6-12S18,68.7,18,72z" />
        </g>
    </svg>
