<?xml version="1.0" encoding="UTF-8" standalone="no"?>
    <svg xmlns:cc="http://creativecommons.org/ns#" xmlns:svg="http://www.w3.org/2000/svg" xmlns="http://www.w3.org/2000/svg" version="1.1" viewBox="0 0 512 512" height="512" width="512">
        <rect y="0" x="0" rx="2" ry="2" height="512" width="512" id="rect-doc" style="fill:#ff9800;fill-opacity:1;stroke:none;stroke-opacity:1" />
        <text id="color0" y="112" x="32" style="font-style:normal;font-variant:normal;font-weight:normal;font-stretch:normal;font-size:96px;font-family:'Heiti SC';text-align:start;letter-spacing:0px;word-spacing:0;writing-mode:lr-tb;text-anchor:left;fill:#ffffff;fill-opacity:1;stroke:none;">道路结冰</text>
        <text id="color1" y="228" x="32" style="font-style:normal;font-variant:normal;font-weight:normal;font-stretch:normal;font-size:96px;font-family:'Heiti SC';text-align:start;word-spacing:0;writing-mode:lr-tb;text-anchor:lfet;fill:#ffffff;fill-opacity:1;stroke:none;">橙色预警</text>
        <text id="en" y="464" x="48" font-size='32px'  fill="#ffffff" fill-opacity="1" stroke="none" font-family='Helvetica Neue' style="font-style:normal;font-variant:normal;font-weight:normal;font-stretch:normal;text-align:start;word-spacing:0;writing-mode:lr-tb;text-anchor:left;">ROAD ICING</text>
        <path style="stroke:#000000;stroke-width:1px;stroke-opacity:0.1" d="M0,384 L512,384" />
        <g transform="translate(368,400)">
            <path stroke="#ffffff" fill="#ffffff" d="M81.685,30.288l0.048-11.54L33.463,9.486L29.3,20.065c-1.903,0.389-3.361,1.614-3.689,3.325l-1.236,6.445  c-0.473,2.461,1.593,4.856,4.702,5.453l1.167,0.224l-0.801,4.175c-0.26,1.356,0.628,2.666,1.984,2.926  c1.356,0.26,2.666-0.628,2.926-1.984l0.801-4.175l34.356,6.593l-0.801,4.175c-0.261,1.355,0.628,2.666,1.983,2.926  c1.356,0.261,2.666-0.628,2.927-1.984l0.801-4.175l1.509,0.29c3.109,0.597,5.915-0.864,6.388-3.325l1.236-6.445  C83.859,32.917,83.098,31.356,81.685,30.288z M36.596,15.178l40.119,7.699l-0.024,5.765l-42.206-8.099L36.596,15.178z   M77.523,39.402c-0.161,0.018-0.382,0.018-0.651-0.034l-46.854-8.991c-0.269-0.051-0.474-0.133-0.617-0.209l1.002-5.226  c0.161-0.018,0.382-0.018,0.651,0.034l46.854,8.991c0.27,0.052,0.475,0.134,0.618,0.21L77.523,39.402z M25.959,78.561  c-0.458-0.139-11.238-3.475-13.754-11.052c-1.952-5.88,3.192-9.66,7.326-12.697c5.681-4.173,7.742-6.274,5.202-10.314l4.233-2.661  c5.266,8.379-1.8,13.57-6.475,17.005c-4.315,3.17-6.268,4.902-5.542,7.091c1.417,4.27,8.027,7.107,10.455,7.841L25.959,78.561z   M65.125,86.917c-0.458-0.139-11.238-3.475-13.754-11.053c-1.952-5.879,3.192-9.659,7.326-12.696  c5.681-4.173,7.741-6.274,5.202-10.314l4.232-2.66c5.268,8.379-1.799,13.569-6.474,17.005c-4.315,3.17-6.269,4.902-5.541,7.091  c1.417,4.27,8.026,7.107,10.453,7.841L65.125,86.917z" />
        </g>
    </svg>
