<?xml version="1.0" encoding="UTF-8" standalone="no"?>
    <svg xmlns:cc="http://creativecommons.org/ns#" xmlns:svg="http://www.w3.org/2000/svg" xmlns="http://www.w3.org/2000/svg" version="1.1" viewBox="0 0 512 512" height="512" width="512">
        <rect y="0" x="0" rx="2" ry="2" height="512" width="512" id="rect-doc" style="fill:#ff9800;fill-opacity:1;stroke:none;stroke-opacity:1" />
        <text id="color0" y="112" x="32" style="font-style:normal;font-variant:normal;font-weight:normal;font-stretch:normal;font-size:96px;font-family:'Source Han Sans CN';text-align:start;letter-spacing:0px;word-spacing:0;writing-mode:lr-tb;text-anchor:left;fill:#ffffff;fill-opacity:1;stroke:none;">沙尘暴</text>
        <text id="color1" y="228" x="32" style="font-style:normal;font-variant:normal;font-weight:normal;font-stretch:normal;font-size:96px;font-family:'Source Han Sans CN';text-align:start;word-spacing:0;writing-mode:lr-tb;text-anchor:lfet;fill:#ffffff;fill-opacity:1;stroke:none;">橙色预警</text>
        <text id="en" y="464" x="48" font-size='32px'  fill="#ffffff" fill-opacity="1" stroke="none" font-family='Roboto' style="font-style:normal;font-variant:normal;font-weight:normal;font-stretch:normal;text-align:start;word-spacing:0;writing-mode:lr-tb;">SAND STORM</text>
        <path style="stroke:#000000;stroke-width:1px;stroke-opacity:0.1" d="M0,384 L512,384" />
        <g transform="translate(368,400)">
            <path stroke="#ffffff" fill="#ffffff" d="M24.998,46.5c-0.978,0-1.833-0.718-1.977-1.714c-0.158-1.093,0.6-2.107,1.693-2.266  c16.071-2.322,22.671-5.115,30.086-17.074c0.582-0.94,1.814-1.23,2.754-0.646c0.938,0.582,1.229,1.815,0.646,2.753  c-8.192,13.213-15.746,16.445-32.914,18.926C25.189,46.494,25.093,46.5,24.998,46.5z M16.152,70.494  c34.651-2.646,55.359-14.555,67.144-38.614c0.486-0.992,0.076-2.19-0.916-2.676c-0.994-0.486-2.19-0.074-2.676,0.916  C68.466,53.065,49.368,63.947,15.848,66.506c-1.101,0.084-1.926,1.045-1.842,2.146c0.08,1.05,0.957,1.848,1.992,1.848  C16.049,70.5,16.101,70.498,16.152,70.494z M40.75,27.5c-1.519,0-2.75,1.231-2.75,2.75S39.231,33,40.75,33s2.75-1.231,2.75-2.75  S42.269,27.5,40.75,27.5z M71.75,22.5c-1.519,0-2.75,1.231-2.75,2.75S70.231,28,71.75,28s2.75-1.231,2.75-2.75  S73.269,22.5,71.75,22.5z M77.75,50.5c-1.519,0-2.75,1.231-2.75,2.75S76.231,56,77.75,56s2.75-1.231,2.75-2.75  S79.269,50.5,77.75,50.5z M42.75,70.5c-1.519,0-2.75,1.231-2.75,2.75S41.231,76,42.75,76s2.75-1.231,2.75-2.75  S44.269,70.5,42.75,70.5z M61.75,62.5c-2.07,0-3.75,1.68-3.75,3.75S59.68,70,61.75,70s3.75-1.68,3.75-3.75S63.82,62.5,61.75,62.5z   M41.75,48.5c-1.519,0-2.75,1.231-2.75,2.75S40.231,54,41.75,54s2.75-1.231,2.75-2.75S43.269,48.5,41.75,48.5z M23.75,54.5  c-1.519,0-2.75,1.231-2.75,2.75S22.231,60,23.75,60s2.75-1.231,2.75-2.75S25.269,54.5,23.75,54.5z M59.75,39  c-1.242,0-2.25,1.007-2.25,2.25s1.008,2.25,2.25,2.25S62,42.493,62,41.25S60.992,39,59.75,39z" />
        </g>
    </svg>
