<?xml version="1.0" encoding="UTF-8" standalone="no"?>
    <svg xmlns:cc="http://creativecommons.org/ns#" xmlns:svg="http://www.w3.org/2000/svg" xmlns="http://www.w3.org/2000/svg" version="1.1" viewBox="0 0 512 512" height="512" width="512">
        <rect y="0" x="0" rx="2" ry="2" height="512" width="512" id="rect-doc" style="fill:#f44336;fill-opacity:1;stroke:none;stroke-opacity:1" />
        <text id="color0" y="112" x="32" style="font-style:normal;font-variant:normal;font-weight:normal;font-stretch:normal;font-size:96px;font-family:STHeiti;text-align:start;letter-spacing:8px;word-spacing:0;writing-mode:lr-tb;text-anchor:left;fill:#ffffff;fill-opacity:1;stroke:none;">暴雪</text>
        <text id="color1" y="228" x="32" style="font-style:normal;font-variant:normal;font-weight:normal;font-stretch:normal;font-size:96px;font-family:STHeiti;text-align:start;word-spacing:0;writing-mode:lr-tb;text-anchor:lfet;fill:#ffffff;fill-opacity:1;stroke:none;">红色预警</text>
        <text id="en" y="464" x="48" font-size='32px'  fill="#ffffff" fill-opacity="1" stroke="none" font-family='Helvetica Neue' style="font-style:normal;font-variant:normal;font-weight:normal;font-stretch:normal;text-align:start;word-spacing:0;writing-mode:lr-tb;text-anchor:left;">SNOW STORM</text>
        <path style="stroke:#000000;stroke-width:1px;stroke-opacity:0.1" d="M0,384 L512,384" />
        <g transform="translate(368,400)">
            <path stroke="#ffffff" fill="#ffffff" d="M61.1,83.2l-3.4-1.9c0.1-0.6,0.2-1.2,0.2-1.8s-0.1-1.2-0.2-1.8l3.4-1.9c1.6-0.9,2.1-2.9,1.2-4.5    c-0.9-1.6-2.9-2.1-4.5-1.2l-3.4,2c-0.9-0.8-1.9-1.4-3.1-1.8v-3.9c0-1.8-1.5-3.3-3.3-3.3s-3.3,1.5-3.3,3.3v3.9    c-1.1,0.4-2.2,1-3.1,1.8l-3.4-2c-1.6-0.9-3.6-0.4-4.5,1.2c-0.9,1.6-0.4,3.6,1.2,4.5l3.4,1.9c-0.1,0.6-0.2,1.2-0.2,1.8    s0.1,1.2,0.2,1.8l-3.4,1.9c-1.6,0.9-2.1,3-1.2,4.5s2.9,2.1,4.5,1.2l3.4-2c0.9,0.8,1.9,1.4,3.1,1.8v3.9c0,1.8,1.5,3.3,3.3,3.3    s3.3-1.5,3.3-3.3v-3.9c1.1-0.4,2.2-1,3.1-1.8l3.4,2c1.6,0.9,3.6,0.4,4.5-1.2S62.7,84.1,61.1,83.2z M48,82.8    c-1.8,0-3.3-1.5-3.3-3.3s1.5-3.3,3.3-3.3s3.3,1.5,3.3,3.3S49.8,82.8,48,82.8z M88.9,74.3l-2.3-0.6c-0.1-0.7-0.2-1.4-0.5-2.1    l1.6-1.6c0.8-0.8,0.8-2,0-2.8c-0.8-0.8-2-0.8-2.8,0l-1.6,1.6c-0.6-0.3-1.3-0.5-2.1-0.5L80.7,66c-0.3-1-1.4-1.7-2.4-1.4    c-1.1,0.3-1.7,1.4-1.4,2.4l0.6,2.2c-0.3,0.2-0.6,0.4-0.8,0.7c-0.3,0.3-0.5,0.5-0.7,0.8l-2.2-0.6c-1.1-0.3-2.1,0.4-2.4,1.4    c-0.3,1.1,0.4,2.1,1.4,2.4l2.2,0.6c0.1,0.7,0.2,1.4,0.6,2.1l-1.7,1.7c-0.8,0.8-0.8,2,0,2.8c0.8,0.8,2,0.8,2.8,0l1.7-1.7    c0.6,0.3,1.3,0.5,2.1,0.6l0.6,2.3c0.3,1.1,1.4,1.7,2.4,1.4c1-0.3,1.7-1.4,1.4-2.4L84.1,79c0.3-0.2,0.6-0.4,0.8-0.7    c0.3-0.3,0.5-0.6,0.7-0.8l2.2,0.6c1.1,0.3,2.1-0.3,2.4-1.4C90.6,75.7,90,74.6,88.9,74.3z M82.2,75.6c-0.8,0.8-2,0.8-2.8,0    c-0.8-0.8-0.8-2,0-2.8c0.8-0.8,2-0.8,2.8,0C82.9,73.5,82.9,74.8,82.2,75.6z M22.3,64.2l-2.2,0.6c-0.2-0.3-0.4-0.6-0.7-0.8    c-0.3-0.3-0.5-0.5-0.8-0.7l0.6-2.2c0.3-1.1-0.3-2.1-1.4-2.4c-1.1-0.3-2.1,0.3-2.4,1.4l-0.6,2.3c-0.7,0.1-1.4,0.2-2.1,0.5L11,61.2    c-0.8-0.8-2-0.8-2.8,0c-0.8,0.8-0.8,2,0,2.8l1.6,1.6c-0.3,0.7-0.5,1.3-0.5,2.1l-2.3,0.6c-1.1,0.3-1.7,1.4-1.4,2.4    c0.3,1,1.4,1.7,2.4,1.4l2.2-0.6c0.2,0.3,0.4,0.6,0.7,0.8c0.3,0.3,0.5,0.5,0.8,0.7l-0.6,2.2c-0.3,1.1,0.3,2.1,1.4,2.4    c1.1,0.3,2.1-0.3,2.4-1.4l0.6-2.2c0.7-0.1,1.4-0.2,2.1-0.6l1.6,1.6c0.8,0.8,2,0.8,2.8,0c0.8-0.8,0.8-2,0-2.8l-1.7-1.7    c0.3-0.6,0.5-1.3,0.6-2.1l2.3-0.6c1-0.3,1.7-1.4,1.4-2.4C24.4,64.6,23.4,63.9,22.3,64.2z M16.6,69.6c-0.8,0.8-2,0.8-2.8,0    c-0.8-0.8-0.8-2,0-2.8c0.8-0.8,2-0.8,2.8,0S17.4,68.8,16.6,69.6z M96,33c0-11.6-9.4-21-21-21c-1,0-2,0.1-3,0.2    C66.4,4.6,57.6,0,48,0S29.6,4.6,24,12.2c-1-0.1-2-0.2-3-0.2C9.4,12,0,21.4,0,33s9.4,21,21,21c2.6,0,5.1-0.5,7.4-1.4    C33.9,57.4,40.8,60,48,60c7.2,0,14.1-2.6,19.6-7.4c2.4,0.9,4.9,1.4,7.4,1.4C86.6,54,96,44.6,96,33z M66.4,45.2    C62,50.6,55.4,54,48,54s-14-3.4-18.4-8.8C27.2,47,24.2,48,21,48c-8.3,0-15-6.7-15-15s6.7-15,15-15c2,0,3.9,0.4,5.7,1.1    C30.7,11.4,38.7,6,48,6s17.3,5.4,21.3,13.1C71.1,18.4,73,18,75,18c8.3,0,15,6.7,15,15s-6.7,15-15,15C71.8,48,68.8,47,66.4,45.2z" />
        </g>
    </svg>
