<?xml version="1.0" encoding="UTF-8" standalone="no"?>
    <svg xmlns:cc="http://creativecommons.org/ns#" xmlns:svg="http://www.w3.org/2000/svg" xmlns="http://www.w3.org/2000/svg" version="1.1" viewBox="0 0 512 512" height="512" width="512">
        <rect y="0" x="0" rx="2" ry="2" height="512" width="512" id="rect-doc" style="fill:#ff9800;fill-opacity:1;stroke:none;stroke-opacity:1" />
        <text id="color0" y="112" x="32" style="font-style:normal;font-variant:normal;font-weight:normal;font-stretch:normal;font-size:96px;font-family:'Heiti SC';text-align:start;letter-spacing:0px;word-spacing:0;writing-mode:lr-tb;text-anchor:left;fill:#ffffff;fill-opacity:1;stroke:none;">台风</text>
        <text id="color1" y="228" x="32" style="font-style:normal;font-variant:normal;font-weight:normal;font-stretch:normal;font-size:96px;font-family:'Heiti SC';text-align:start;word-spacing:0;writing-mode:lr-tb;text-anchor:lfet;fill:#ffffff;fill-opacity:1;stroke:none;">橙色预警</text>
        <text id="en" y="464" x="48" font-size='32px'  fill="#ffffff" fill-opacity="1" stroke="none" font-family='Helvetica Neue' style="font-style:normal;font-variant:normal;font-weight:normal;font-stretch:normal;text-align:start;word-spacing:0;writing-mode:lr-tb;text-anchor:left;">TYPHOON</text>
        <path style="stroke:#000000;stroke-width:1px;stroke-opacity:0.1" d="M0,384 L512,384" />
        <g transform="translate(368,400)">
            <path stroke="#ffffff" fill="#ffffff" d="M87.236,23.108c-29.326-10.08-50.978,2.017-50.978,2.017l0.007,0.014c-12.525,6.486-17.565,21.846-11.24,34.506  c2.159,4.323,5.368,7.772,9.16,10.203c-7.023,1.997-15.607,3.465-25.428,3.27c22.964,7.868,41.234,2.172,48.107-0.685  c0.96-0.345,1.911-0.742,2.847-1.21c12.776-6.383,17.96-21.912,11.579-34.686c-2.229-4.462-5.578-7.995-9.532-10.436  C68.788,24.257,77.388,22.904,87.236,23.108z M54.418,60.622c-6.921,3.456-15.333,0.649-18.789-6.272  c-3.457-6.919-0.649-15.333,6.271-18.788c6.92-3.457,15.332-0.65,18.79,6.27C64.145,48.751,61.339,57.164,54.418,60.622z" />
        </g>
    </svg>
