<?xml version="1.0" encoding="UTF-8" standalone="no"?>
    <svg xmlns:cc="http://creativecommons.org/ns#" xmlns:svg="http://www.w3.org/2000/svg" xmlns="http://www.w3.org/2000/svg" version="1.1" viewBox="0 0 512 512" height="512" width="512">
        <rect y="0" x="0" height="512" width="512" id="rect-doc" style="fill:#ff9800;fill-opacity:1;stroke:none;stroke-opacity:1" />
        <rect y="32" x="32" height="64" width="448" id="rect-title" style="fill:#ffffff;fill-opacity:1;stroke:none;stroke-opacity:1" />
        <text id="color" y="80" x="50%" style="font-style:normal;font-variant:normal;font-weight:normal;font-stretch:normal;font-size:48px;font-family:sans-serif;text-align:start;letter-spacing:48px;word-spacing:0;writing-mode:lr-tb;text-anchor:middle;fill:#ff9800;fill-opacity:1;stroke:none;">橙色预警</text>
        <text id="weather" style="font-style:normal;font-variant:normal;font-weight:normal;font-stretch:normal;font-size:64px;font-family:sans-serif;text-align:start;word-spacing:0;writing-mode:lr-tb;text-anchor:start;fill:#ffffff;fill-opacity:1;stroke:none;">
            <tspan y="208" x="384">大</tspan>
            <tspan y="368" x="384">风</tspan>
        </text>
        <text id="en" y="480" x="50%" style="font-style:normal;font-variant:normal;font-weight:normal;font-stretch:normal;font-size:48px;font-family:sans-serif;text-align:start;word-spacing:0;writing-mode:lr-tb;text-anchor:middle;fill:#ffffff;fill-opacity:1;stroke:none;">GALE</text>
        <g transform="scale(0.5) translate(112,282)">
            <path fill-rule="evenodd" clip-rule="evenodd" fill="#ffffff" d="M431,192c-26.5,0-48,21.5-48,48c0,5.646,1.167,10.958,2.938,16H79c-8.833,0-16,7.167-16,16s7.167,16,16,16    h352c26.5,0,48-21.5,48-48S457.5,192,431,192z M79,224h192c26.5,0,48-21.5,48-48s-21.5-48-48-48s-48,21.5-48,48    c0,5.646,1.167,10.958,2.938,16H79c-8.833,0-16,7.167-16,16S70.167,224,79,224z M335,320c-0.938,0-1.834,0.208-2.791,0.291    c-0.625-0.041-1.146-0.291-1.771-0.291H83.584C72.209,320,63,327.167,63,336s9.209,16,20.584,16h206.354    c-1.771,5.042-2.938,10.376-2.938,16c0,26.5,21.5,48,48,48s48-21.5,48-48S361.5,320,335,320z" />
        </g>
    </svg>