<?xml version="1.0" encoding="UTF-8" standalone="no"?>
    <svg xmlns:cc="http://creativecommons.org/ns#" xmlns:svg="http://www.w3.org/2000/svg" xmlns="http://www.w3.org/2000/svg" version="1.1" viewBox="0 0 512 512" height="512" width="512">
        <rect y="0" x="0" height="512" width="512" id="rect-doc" style="fill:#ff9800;fill-opacity:1;stroke:none;stroke-opacity:1" />
        <rect y="32" x="32" height="64" width="448" id="rect-title" style="fill:#ffffff;fill-opacity:1;stroke:none;stroke-opacity:1" />
        <text id="color" y="80" x="50%" style="font-style:normal;font-variant:normal;font-weight:normal;font-stretch:normal;font-size:48px;font-family:sans-serif;text-align:start;letter-spacing:48px;word-spacing:0;writing-mode:lr-tb;text-anchor:middle;fill:#ff9800;fill-opacity:1;stroke:none;">橙色预警</text>
        <text id="weather" style="font-style:normal;font-variant:normal;font-weight:normal;font-stretch:normal;font-size:64px;font-family:sans-serif;text-align:start;word-spacing:0;writing-mode:lr-tb;text-anchor:start;fill:#ffffff;fill-opacity:1;stroke:none;">
            <tspan y="208" x="384">高</tspan>
            <tspan y="368" x="384">温</tspan>
        </text>
        <text id="en" y="480" x="50%" style="font-style:normal;font-variant:normal;font-weight:normal;font-stretch:normal;font-size:48px;font-family:sans-serif;text-align:start;word-spacing:0;writing-mode:lr-tb;text-anchor:middle;fill:#ffffff;fill-opacity:1;stroke:none;">HEAT WAVE</text>
        <g transform="scale(0.5) translate(112,282)">
            <path fill-rule="evenodd" clip-rule="evenodd" fill="#ffffff" d="M288,360.875V66.917C288,47.625,273.666,32,256,32  c-17.667,0-32,15.625-32,34.917v293.958c-19.042,11.083-32,31.501-32,55.125c0,35.333,28.666,64,64,64c35.333,0,64-28.667,64-64  C320,392.376,307.062,371.958,288,360.875z" />
        </g>
    </svg>