<?xml version="1.0" encoding="UTF-8" standalone="no"?>
    <svg xmlns:cc="http://creativecommons.org/ns#" xmlns:svg="http://www.w3.org/2000/svg" xmlns="http://www.w3.org/2000/svg" version="1.1" viewBox="0 0 512 512" height="512" width="512">
        <rect y="0" x="0" height="512" width="512" id="rect-doc" style="fill:#ffc700;fill-opacity:1;stroke:none;stroke-opacity:1" />
        <rect y="32" x="32" height="64" width="448" id="rect-title" style="fill:#ffffff;fill-opacity:1;stroke:none;stroke-opacity:1" />
        <text id="color" y="80" x="50%" style="font-style:normal;font-variant:normal;font-weight:normal;font-stretch:normal;font-size:48px;font-family:sans-serif;text-align:start;letter-spacing:48px;word-spacing:0;writing-mode:lr-tb;text-anchor:middle;fill:#ffc700;fill-opacity:1;stroke:none;">黄色预警</text>
        <text id="weather" style="font-style:normal;font-variant:normal;font-weight:normal;font-stretch:normal;font-size:64px;font-family:sans-serif;text-align:start;word-spacing:0;writing-mode:lr-tb;text-anchor:start;fill:#ffffff;fill-opacity:1;stroke:none;">
            <tspan y="208" x="384">大</tspan>
            <tspan y="368" x="384">雾</tspan>
        </text>
        <text id="en" y="480" x="50%" style="font-style:normal;font-variant:normal;font-weight:normal;font-stretch:normal;font-size:48px;font-family:sans-serif;text-align:start;word-spacing:0;writing-mode:lr-tb;text-anchor:middle;fill:#ffffff;fill-opacity:1;stroke:none;">HEAVY FOG</text>
        <g transform="scale(0.5) translate(112,282)">
            <path fill-rule="evenodd" clip-rule="evenodd" fill="#ffffff" d="M112,160h288c8.833,0,16-7.167,16-16s-7.167-16-16-16H112c-8.833,0-16,7.167-16,16S103.167,160,112,160z     M400,192H112c-8.833,0-16,7.167-16,16s7.167,16,16,16h288c8.833,0,16-7.167,16-16S408.833,192,400,192z M400,256H112    c-8.833,0-16,7.167-16,16s7.167,16,16,16h288c8.833,0,16-7.167,16-16S408.833,256,400,256z M400,320H112c-8.833,0-16,7.167-16,16    s7.167,16,16,16h288c8.833,0,16-7.167,16-16S408.833,320,400,320z" />
        </g>
    </svg>